<?xml version="1.0" encoding="UTF-8" standalone="no"?><!DOCTYPE svg PUBLIC "-//W3C//DTD SVG 1.1//EN" "http://www.w3.org/Graphics/SVG/1.1/DTD/svg11.dtd"><svg width="100%" height="100%" viewBox="0 0 200 200" version="1.1" xmlns="http://www.w3.org/2000/svg" xmlns:xlink="http://www.w3.org/1999/xlink" xml:space="preserve" xmlns:serif="http://www.serif.com/" style="fill-rule:evenodd;clip-rule:evenodd;stroke-linejoin:round;stroke-miterlimit:2;"><path d="M164.106,30.818l-64.106,64.106l-64.106,-64.106c17.002,-17.002 40.062,-26.553 64.106,-26.553c24.044,-0 47.104,9.551 64.106,26.553Z" style="fill:#165f73;"/><path d="M35.894,40.97l64.106,64.106l64.106,-64.106c17.002,17.002 26.553,40.062 26.553,64.106c0,50.036 -40.623,90.659 -90.659,90.659c-50.036,0 -90.659,-40.623 -90.659,-90.659c-0,-24.044 9.551,-47.104 26.553,-64.106Zm128.201,29.429l-35.764,34.677l47.775,-14.113c-2.282,-7.725 -6.404,-14.781 -12.011,-20.564Zm-127.718,-0c-5.607,5.783 -9.728,12.839 -12.01,20.564l47.774,14.113l-35.764,-34.677Zm127.729,71.868l-11.185,-11.185c-14.036,14.036 -33.072,21.921 -52.921,21.921c-19.849,-0 -38.885,-7.885 -52.921,-21.921l-11.185,11.185c17.002,17.002 40.062,26.554 64.106,26.554c24.044,-0 47.104,-9.552 64.106,-26.554Z" style="fill:#ff9f00;"/></svg>